#!OML:ASF F:\VICON\USERDATA\INSTALL\rory3\rory3.ASF
:FULLY-SPECIFIED
:DEGREES
965
root 4.69401 17.4031 2.58073 5.88133 -11.8509 -6.11718
lowerback 11.3114 0.0204118 4.62974
upperback 4.22324 0.539595 1.54645
thorax -1.89723 0.277781 -1.06739
lowerneck -11.5218 -0.387144 -2.5467
upperneck 35.778 0.172049 -0.598055
head 14.146 -0.401954 0.221681
rclavicle 4.70126e-014 -2.18663e-015
rhumerus -32.5467 -3.30784 -16.9806
rradius 35.5395
rwrist 9.62074
rhand -20.9771 -44.4857
rfingers 7.12502
rthumb 5.39647 -74.397
lclavicle 4.70126e-014 -2.18663e-015
lhumerus -29.5424 1.90042 11.3531
lradius 29.8206
lwrist 11.0232
lhand -24.1851 -29.9675
lfingers 7.12502
lthumb 2.29859 -0.000181773
rfemur -98.2503 1.63239 28.7688
rtibia 97.5666
rfoot 47.0301 3.01707
rtoes -6.84076
lfemur -18.6154 0.85537 -23.2708
ltibia 30.6359
lfoot -14.4516 7.90503
ltoes 12.1629
966
root 4.69626 17.4084 2.58638 5.8575 -11.9037 -6.07837
lowerback 11.2092 0.0472707 4.6317
upperback 4.24896 0.566705 1.50189
thorax -1.81273 0.293595 -1.1174
lowerneck -11.4564 -0.369495 -2.51453
upperneck 35.7281 0.16743 -0.54331
head 14.1078 -0.391543 0.237718
rclavicle 1.14301e-015 -1.5207e-014
rhumerus -32.6303 -3.1693 -17.026
rradius 35.5717
rwrist 9.50313
rhand -20.82 -44.5227
rfingers 7.12502
rthumb 5.54819 -74.4301
lclavicle 1.14301e-015 -1.5207e-014
lhumerus -29.2815 2.08415 11.272
lradius 29.5707
lwrist 10.646
lhand -23.9975 -30.7763
lfingers 7.12502
lthumb 2.47974 -0.810942
rfemur -98.1683 1.62629 28.735
rtibia 97.541
rfoot 46.9938 3.21541
rtoes -7.12023
lfemur -18.5992 0.799785 -23.2997
ltibia 30.5956
lfoot -14.5068 7.87689
ltoes 13.2752
967
root 4.69885 17.4041 2.60042 5.78842 -11.9974 -5.99976
lowerback 11.1235 0.0664032 4.612
upperback 4.28175 0.581529 1.4357
thorax -1.73053 0.303346 -1.17616
lowerneck -11.4031 -0.344647 -2.45685
upperneck 35.6918 0.180861 -0.528638
head 14.0785 -0.375781 0.23554
rclavicle 8.34896e-015 -4.37326e-015
rhumerus -32.6376 -3.18268 -17.0624
rradius 35.5696
rwrist 9.58288
rhand -20.4703 -44.9226
rfingers 7.12502
rthumb 5.88578 -74.8209
lclavicle 8.34896e-015 -4.37326e-015
lhumerus -29.2373 2.17777 11.1636
lradius 29.4879
lwrist 10.5525
lhand -23.7672 -30.8892
lfingers 7.12502
lthumb 2.70218 -0.926598
rfemur -98.1369 1.62264 28.6646
rtibia 97.6093
rfoot 46.8601 3.64709
rtoes -7.11291
lfemur -18.3647 0.949803 -23.4551
ltibia 30.5282
lfoot -14.5293 8.02985
ltoes 11.9759
968
root 4.70069 17.4011 2.61064 5.76583 -12.0282 -5.95415
lowerback 11.0325 0.0485062 4.60116
upperback 4.32903 0.548429 1.404
thorax -1.6331 0.289567 -1.19811
lowerneck -11.5454 -0.329803 -2.43673
upperneck 35.7159 0.207294 -0.542602
head 14.1213 -0.364402 0.230016
rclavicle -3.28989e-014 9.93923e-016
rhumerus -32.483 -3.4104 -17.0539
rradius 35.4524
rwrist 9.77432
rhand -20.4008 -45.1735
rfingers 7.12502
rthumb 5.95283 -75.0699
lclavicle -3.28989e-014 9.93923e-016
lhumerus -29.3972 2.16589 11.1201
lradius 29.6386
lwrist 10.7295
lhand -23.8348 -30.7716
lfingers 7.12502
lthumb 2.63691 -0.80818
rfemur -98.1513 1.59263 28.6336
rtibia 97.6755
rfoot 46.7853 3.98557
rtoes -7.40198
lfemur -18.1716 1.07482 -23.5602
ltibia 30.4022
lfoot -14.4801 8.08829
ltoes 10.9642
969
root 4.70072 17.4022 2.6126 5.77374 -12.0056 -5.97214
lowerback 11.0156 0.0215618 4.58798
upperback 4.35447 0.50971 1.41797
thorax -1.59982 0.271048 -1.17133
lowerneck -11.7274 -0.327963 -2.3506
upperneck 35.7018 0.24117 -0.676987
head 14.1562 -0.356331 0.16518
rclavicle -1.19271e-015 5.96354e-016
rhumerus -32.2278 -3.68849 -17.0313
rradius 35.2131
rwrist 9.94846
rhand -20.4406 -44.9862
rfingers 7.12502
rthumb 5.91448 -74.8837
lclavicle -1.19271e-015 5.96354e-016
lhumerus -29.4554 2.19958 11.1166
lradius 29.6229
lwrist 10.7438
lhand -24.065 -31.098
lfingers 7.12502
lthumb 2.41459 -1.13193
rfemur -98.1261 1.57771 28.6487
rtibia 97.6887
rfoot 46.8529 3.88437
rtoes -7.49767
lfemur -18.1041 1.03484 -23.5273
ltibia 30.2637
lfoot -14.4315 7.99267
ltoes 12.5933
970
root 4.70127 17.3973 2.6159 5.73931 -11.9914 -5.92012
lowerback 11.0762 0.00331378 4.51863
upperback 4.30455 0.484148 1.40813
thorax -1.68715 0.255622 -1.14014
lowerneck -11.6695 -0.3263 -2.24827
upperneck 35.6993 0.255945 -0.798146
head 14.1422 -0.352561 0.100103
rclavicle 2.06239e-014 2.82274e-014
rhumerus -32.1063 -3.64252 -17.0402
rradius 35.0868
rwrist 9.97272
rhand -20.543 -44.5691
rfingers 7.12502
rthumb 5.81556 -74.4693
lclavicle 2.06239e-014 2.82274e-014
lhumerus -29.4642 2.08516 11.1145
lradius 29.4904
lwrist 10.8012
lhand -24.3186 -31.5379
lfingers 7.12502
lthumb 2.1697 -1.56914
rfemur -98.1398 1.52805 28.603
rtibia 97.7486
rfoot 46.935 3.87009
rtoes -7.50591
lfemur -18.0077 1.05893 -23.5957
ltibia 30.178
lfoot -14.3813 8.07417
ltoes 10.1662
